<mxfile host="app.diagrams.net" modified="2022-04-05T17:12:38.087Z" agent="5.0 (Windows NT 10.0; Win64; x64) AppleWebKit/537.36 (KHTML, like Gecko) Chrome/99.0.4844.84 Safari/537.36" etag="pRkHlHMM_QoSCNcdz9az" version="17.4.0" type="github">
  <diagram id="xhUp7xmp138iyz3W2qCl" name="Page-1">
    <mxGraphModel dx="868" dy="458" grid="1" gridSize="10" guides="1" tooltips="1" connect="1" arrows="1" fold="1" page="1" pageScale="1" pageWidth="850" pageHeight="1100" math="0" shadow="0">
      <root>
        <mxCell id="0" />
        <mxCell id="1" parent="0" />
        <mxCell id="acDbNe6TPua78I9FgoyM-1" style="edgeStyle=orthogonalEdgeStyle;rounded=0;orthogonalLoop=1;jettySize=auto;html=1;entryX=0.5;entryY=0;entryDx=0;entryDy=0;" edge="1" parent="1" source="acDbNe6TPua78I9FgoyM-2" target="acDbNe6TPua78I9FgoyM-3">
          <mxGeometry relative="1" as="geometry" />
        </mxCell>
        <mxCell id="acDbNe6TPua78I9FgoyM-2" value="Idle" style="rounded=1;whiteSpace=wrap;html=1;" vertex="1" parent="1">
          <mxGeometry x="340" y="100" width="120" height="60" as="geometry" />
        </mxCell>
        <mxCell id="acDbNe6TPua78I9FgoyM-3" value="waiting for selection" style="rounded=1;whiteSpace=wrap;html=1;" vertex="1" parent="1">
          <mxGeometry x="340" y="230" width="120" height="60" as="geometry" />
        </mxCell>
        <mxCell id="acDbNe6TPua78I9FgoyM-4" value="waiting for time period selection" style="rounded=1;whiteSpace=wrap;html=1;" vertex="1" parent="1">
          <mxGeometry x="340" y="430" width="120" height="60" as="geometry" />
        </mxCell>
        <mxCell id="acDbNe6TPua78I9FgoyM-5" value="" style="ellipse;html=1;shape=startState;fillColor=#000000;strokeColor=#ff0000;" vertex="1" parent="1">
          <mxGeometry x="384" y="10" width="30" height="30" as="geometry" />
        </mxCell>
        <mxCell id="acDbNe6TPua78I9FgoyM-6" value="" style="edgeStyle=orthogonalEdgeStyle;html=1;verticalAlign=bottom;endArrow=open;endSize=8;strokeColor=#ff0000;rounded=0;" edge="1" parent="1" source="acDbNe6TPua78I9FgoyM-5">
          <mxGeometry relative="1" as="geometry">
            <mxPoint x="398.9999999999998" y="99.99999999999989" as="targetPoint" />
          </mxGeometry>
        </mxCell>
        <mxCell id="acDbNe6TPua78I9FgoyM-7" value="resident logged In / show display menu" style="text;html=1;strokeColor=none;fillColor=none;align=center;verticalAlign=middle;whiteSpace=wrap;rounded=0;" vertex="1" parent="1">
          <mxGeometry x="210" y="180" width="120" height="30" as="geometry" />
        </mxCell>
        <mxCell id="acDbNe6TPua78I9FgoyM-8" value="view electricity bill selected / Display time period to select" style="text;html=1;strokeColor=none;fillColor=none;align=center;verticalAlign=middle;whiteSpace=wrap;rounded=0;" vertex="1" parent="1">
          <mxGeometry x="240" y="350" width="100" height="30" as="geometry" />
        </mxCell>
        <mxCell id="acDbNe6TPua78I9FgoyM-9" value="" style="endArrow=classic;html=1;rounded=0;exitX=0.183;exitY=1.033;exitDx=0;exitDy=0;exitPerimeter=0;" edge="1" parent="1">
          <mxGeometry width="50" height="50" relative="1" as="geometry">
            <mxPoint x="400.96000000000004" y="291.98" as="sourcePoint" />
            <mxPoint x="400" y="430" as="targetPoint" />
            <Array as="points">
              <mxPoint x="400" y="370" />
            </Array>
          </mxGeometry>
        </mxCell>
        <mxCell id="acDbNe6TPua78I9FgoyM-10" value="Invalid Time period/ display error Window" style="text;html=1;align=center;verticalAlign=middle;resizable=0;points=[];autosize=1;strokeColor=none;fillColor=none;" vertex="1" parent="1">
          <mxGeometry x="570" y="450" width="240" height="20" as="geometry" />
        </mxCell>
        <mxCell id="acDbNe6TPua78I9FgoyM-11" value="" style="endArrow=classic;html=1;rounded=0;exitX=1.01;exitY=0.137;exitDx=0;exitDy=0;exitPerimeter=0;entryX=1;entryY=1;entryDx=0;entryDy=0;" edge="1" parent="1">
          <mxGeometry width="50" height="50" relative="1" as="geometry">
            <mxPoint x="461.1999999999998" y="438.2199999999998" as="sourcePoint" />
            <mxPoint x="460" y="490" as="targetPoint" />
            <Array as="points">
              <mxPoint x="560" y="440" />
              <mxPoint x="560" y="490" />
            </Array>
          </mxGeometry>
        </mxCell>
        <mxCell id="acDbNe6TPua78I9FgoyM-12" value="Valid Time period / Fetch Ledger" style="text;html=1;strokeColor=none;fillColor=none;align=center;verticalAlign=middle;whiteSpace=wrap;rounded=0;" vertex="1" parent="1">
          <mxGeometry x="324" y="535" width="60" height="30" as="geometry" />
        </mxCell>
        <mxCell id="acDbNe6TPua78I9FgoyM-13" value="Fetching data from blockchain ledger" style="rounded=1;whiteSpace=wrap;html=1;" vertex="1" parent="1">
          <mxGeometry x="339" y="628.02" width="120" height="60" as="geometry" />
        </mxCell>
        <mxCell id="acDbNe6TPua78I9FgoyM-14" value="" style="endArrow=classic;html=1;rounded=0;exitX=0.183;exitY=1.033;exitDx=0;exitDy=0;exitPerimeter=0;" edge="1" parent="1">
          <mxGeometry width="50" height="50" relative="1" as="geometry">
            <mxPoint x="399.9599999999998" y="490" as="sourcePoint" />
            <mxPoint x="398.9999999999998" y="628.0200000000002" as="targetPoint" />
            <Array as="points">
              <mxPoint x="399" y="568.02" />
            </Array>
          </mxGeometry>
        </mxCell>
        <mxCell id="acDbNe6TPua78I9FgoyM-15" value="fetched data / display bill and use" style="text;html=1;strokeColor=none;fillColor=none;align=center;verticalAlign=middle;whiteSpace=wrap;rounded=0;" vertex="1" parent="1">
          <mxGeometry x="260" y="733.02" width="125" height="30" as="geometry" />
        </mxCell>
        <mxCell id="acDbNe6TPua78I9FgoyM-16" value="Displaying Bill" style="rounded=1;whiteSpace=wrap;html=1;" vertex="1" parent="1">
          <mxGeometry x="340" y="826.04" width="120" height="60" as="geometry" />
        </mxCell>
        <mxCell id="acDbNe6TPua78I9FgoyM-17" value="" style="endArrow=classic;html=1;rounded=0;exitX=0.183;exitY=1.033;exitDx=0;exitDy=0;exitPerimeter=0;" edge="1" parent="1">
          <mxGeometry width="50" height="50" relative="1" as="geometry">
            <mxPoint x="400.96000000000004" y="688.0200000000002" as="sourcePoint" />
            <mxPoint x="400" y="826.04" as="targetPoint" />
            <Array as="points">
              <mxPoint x="400" y="766.04" />
            </Array>
          </mxGeometry>
        </mxCell>
        <mxCell id="acDbNe6TPua78I9FgoyM-18" style="edgeStyle=orthogonalEdgeStyle;rounded=0;orthogonalLoop=1;jettySize=auto;html=1;entryX=0;entryY=0.5;entryDx=0;entryDy=0;" edge="1" parent="1" target="acDbNe6TPua78I9FgoyM-19">
          <mxGeometry relative="1" as="geometry">
            <mxPoint x="460" y="855" as="sourcePoint" />
          </mxGeometry>
        </mxCell>
        <mxCell id="acDbNe6TPua78I9FgoyM-19" value="Login Screen" style="rounded=1;whiteSpace=wrap;html=1;" vertex="1" parent="1">
          <mxGeometry x="707" y="825" width="120" height="60" as="geometry" />
        </mxCell>
        <mxCell id="acDbNe6TPua78I9FgoyM-20" value="Clicks Logout / Prompt Logging out window&amp;nbsp;" style="text;html=1;strokeColor=none;fillColor=none;align=center;verticalAlign=middle;whiteSpace=wrap;rounded=0;" vertex="1" parent="1">
          <mxGeometry x="550" y="785" width="80" height="40" as="geometry" />
        </mxCell>
        <mxCell id="acDbNe6TPua78I9FgoyM-21" style="edgeStyle=orthogonalEdgeStyle;rounded=0;orthogonalLoop=1;jettySize=auto;html=1;entryX=0.5;entryY=0;entryDx=0;entryDy=0;" edge="1" parent="1" source="acDbNe6TPua78I9FgoyM-22" target="acDbNe6TPua78I9FgoyM-23">
          <mxGeometry relative="1" as="geometry" />
        </mxCell>
        <mxCell id="acDbNe6TPua78I9FgoyM-22" value="Idle" style="rounded=1;whiteSpace=wrap;html=1;" vertex="1" parent="1">
          <mxGeometry x="1110" y="90" width="120" height="60" as="geometry" />
        </mxCell>
        <mxCell id="acDbNe6TPua78I9FgoyM-23" value="waiting for time period selection" style="rounded=1;whiteSpace=wrap;html=1;" vertex="1" parent="1">
          <mxGeometry x="1110" y="220" width="120" height="60" as="geometry" />
        </mxCell>
        <mxCell id="acDbNe6TPua78I9FgoyM-24" style="edgeStyle=orthogonalEdgeStyle;rounded=0;orthogonalLoop=1;jettySize=auto;html=1;entryX=0;entryY=0.5;entryDx=0;entryDy=0;" edge="1" parent="1" source="acDbNe6TPua78I9FgoyM-25" target="acDbNe6TPua78I9FgoyM-34">
          <mxGeometry relative="1" as="geometry" />
        </mxCell>
        <mxCell id="acDbNe6TPua78I9FgoyM-25" value="Display Bill" style="rounded=1;whiteSpace=wrap;html=1;" vertex="1" parent="1">
          <mxGeometry x="1110" y="420" width="120" height="60" as="geometry" />
        </mxCell>
        <mxCell id="acDbNe6TPua78I9FgoyM-26" value="" style="ellipse;html=1;shape=startState;fillColor=#000000;strokeColor=#ff0000;" vertex="1" parent="1">
          <mxGeometry x="1154" width="30" height="30" as="geometry" />
        </mxCell>
        <mxCell id="acDbNe6TPua78I9FgoyM-27" value="" style="edgeStyle=orthogonalEdgeStyle;html=1;verticalAlign=bottom;endArrow=open;endSize=8;strokeColor=#ff0000;rounded=0;" edge="1" parent="1" source="acDbNe6TPua78I9FgoyM-26">
          <mxGeometry relative="1" as="geometry">
            <mxPoint x="1169" y="89.99999999999989" as="targetPoint" />
          </mxGeometry>
        </mxCell>
        <mxCell id="acDbNe6TPua78I9FgoyM-28" value="clicks electricity bill / Display calender options&amp;nbsp;&amp;nbsp;" style="text;html=1;strokeColor=none;fillColor=none;align=center;verticalAlign=middle;whiteSpace=wrap;rounded=0;" vertex="1" parent="1">
          <mxGeometry x="1040" y="170" width="60" height="30" as="geometry" />
        </mxCell>
        <mxCell id="acDbNe6TPua78I9FgoyM-29" value="Valid Time period / Fetch Ledger" style="text;html=1;strokeColor=none;fillColor=none;align=center;verticalAlign=middle;whiteSpace=wrap;rounded=0;" vertex="1" parent="1">
          <mxGeometry x="1050" y="340" width="60" height="30" as="geometry" />
        </mxCell>
        <mxCell id="acDbNe6TPua78I9FgoyM-30" value="" style="endArrow=classic;html=1;rounded=0;exitX=0.183;exitY=1.033;exitDx=0;exitDy=0;exitPerimeter=0;entryX=0.175;entryY=-0.067;entryDx=0;entryDy=0;entryPerimeter=0;" edge="1" parent="1" source="acDbNe6TPua78I9FgoyM-23" target="acDbNe6TPua78I9FgoyM-25">
          <mxGeometry width="50" height="50" relative="1" as="geometry">
            <mxPoint x="1130" y="340" as="sourcePoint" />
            <mxPoint x="1180" y="290" as="targetPoint" />
          </mxGeometry>
        </mxCell>
        <mxCell id="acDbNe6TPua78I9FgoyM-31" value="" style="endArrow=classic;html=1;rounded=0;entryX=0.675;entryY=1.067;entryDx=0;entryDy=0;entryPerimeter=0;exitX=0.675;exitY=-0.017;exitDx=0;exitDy=0;exitPerimeter=0;" edge="1" parent="1" source="acDbNe6TPua78I9FgoyM-25" target="acDbNe6TPua78I9FgoyM-23">
          <mxGeometry width="50" height="50" relative="1" as="geometry">
            <mxPoint x="1191" y="350" as="sourcePoint" />
            <mxPoint x="1220" y="300" as="targetPoint" />
          </mxGeometry>
        </mxCell>
        <mxCell id="acDbNe6TPua78I9FgoyM-32" value="Invalid Time period/ display error Window" style="text;html=1;align=center;verticalAlign=middle;resizable=0;points=[];autosize=1;strokeColor=none;fillColor=none;" vertex="1" parent="1">
          <mxGeometry x="1310" y="240" width="240" height="20" as="geometry" />
        </mxCell>
        <mxCell id="acDbNe6TPua78I9FgoyM-33" value="" style="endArrow=classic;html=1;rounded=0;exitX=1;exitY=0;exitDx=0;exitDy=0;entryX=1;entryY=1;entryDx=0;entryDy=0;" edge="1" parent="1" source="acDbNe6TPua78I9FgoyM-23" target="acDbNe6TPua78I9FgoyM-23">
          <mxGeometry width="50" height="50" relative="1" as="geometry">
            <mxPoint x="1240" y="240" as="sourcePoint" />
            <mxPoint x="1300" y="280" as="targetPoint" />
            <Array as="points">
              <mxPoint x="1310" y="220" />
              <mxPoint x="1310" y="280" />
            </Array>
          </mxGeometry>
        </mxCell>
        <mxCell id="acDbNe6TPua78I9FgoyM-34" value="Login Screen" style="rounded=1;whiteSpace=wrap;html=1;" vertex="1" parent="1">
          <mxGeometry x="1477" y="420" width="120" height="60" as="geometry" />
        </mxCell>
        <mxCell id="acDbNe6TPua78I9FgoyM-35" value="Clicks Logout / Prompt Logging out window&amp;nbsp;" style="text;html=1;strokeColor=none;fillColor=none;align=center;verticalAlign=middle;whiteSpace=wrap;rounded=0;" vertex="1" parent="1">
          <mxGeometry x="1320" y="380" width="80" height="40" as="geometry" />
        </mxCell>
        <mxCell id="acDbNe6TPua78I9FgoyM-36" value="Click time period selection / Display Calender options" style="text;html=1;strokeColor=none;fillColor=none;align=center;verticalAlign=middle;whiteSpace=wrap;rounded=0;" vertex="1" parent="1">
          <mxGeometry x="1200" y="315" width="100" height="80" as="geometry" />
        </mxCell>
      </root>
    </mxGraphModel>
  </diagram>
</mxfile>
